<?xml version="1.0" standalone="no"?>
<!DOCTYPE svg PUBLIC "-//W3C//DTD SVG 20010904//EN"
 "http://www.w3.org/TR/2001/REC-SVG-20010904/DTD/svg10.dtd">
<svg version="1.0" xmlns="http://www.w3.org/2000/svg"
 width="512.000000pt" height="512.000000pt" viewBox="0 0 512.000000 512.000000"
 preserveAspectRatio="xMidYMid meet">

<g transform="translate(0.000000,512.000000) scale(0.100000,-0.100000)"
fill="#000000" stroke="none">
<path d="M2370 5074 c-19 -2 -75 -9 -125 -15 -442 -54 -892 -243 -1257 -529
-107 -84 -314 -291 -398 -398 -285 -365 -460 -779 -531 -1257 -18 -119 -18
-511 0 -630 71 -478 246 -892 531 -1257 84 -107 291 -314 398 -398 365 -285
779 -460 1257 -531 119 -18 511 -18 630 0 478 71 892 246 1257 531 107 84 314
291 398 398 285 365 460 779 531 1257 18 119 18 511 0 630 -71 478 -246 892
-531 1257 -84 107 -291 314 -398 398 -356 279 -760 453 -1219 525 -93 15 -466
28 -543 19z m-203 -1437 c196 -52 331 -175 386 -352 31 -100 30 -275 -1 -356
-44 -111 -100 -166 -219 -215 -58 -23 -58 -24 -21 -24 63 0 144 -37 199 -91
92 -90 139 -230 139 -420 0 -316 -149 -513 -456 -600 -78 -23 -90 -23 -691
-27 l-613 -3 0 1056 0 1056 608 -4 c525 -3 615 -6 669 -20z m1793 -237 l0
-130 -435 0 -435 0 0 130 0 130 435 0 435 0 0 -130z m-222 -299 c212 -44 360
-157 452 -346 57 -117 80 -223 87 -397 l6 -148 -548 0 -548 0 5 -63 c14 -171
137 -288 320 -303 126 -11 252 21 316 80 31 27 62 88 62 121 l0 25 185 0 185
0 0 -48 c0 -173 -113 -343 -282 -426 -115 -56 -211 -77 -383 -83 -244 -8 -415
33 -563 137 -304 213 -385 694 -184 1084 81 158 239 292 406 346 132 42 336
51 484 21z"/>
<path d="M1370 3044 l0 -235 323 3 c368 3 368 4 410 88 18 38 22 62 22 150 0
121 -17 170 -74 207 -34 23 -38 23 -357 23 l-324 0 0 -236z"/>
<path d="M1370 2211 l0 -281 328 0 c322 0 328 1 377 24 60 28 77 46 106 111
18 39 22 68 22 135 -1 133 -42 218 -126 263 -41 21 -52 22 -374 25 l-333 3 0
-280z"/>
<path d="M3435 2796 c-111 -35 -193 -120 -236 -244 -10 -30 -19 -57 -19 -59 0
-1 156 -3 346 -3 l347 0 -6 52 c-14 114 -100 223 -200 253 -61 18 -177 18
-232 1z"/>
</g>
</svg>
