<?xml version="1.0" standalone="no"?>
<!DOCTYPE svg PUBLIC "-//W3C//DTD SVG 20010904//EN"
 "http://www.w3.org/TR/2001/REC-SVG-20010904/DTD/svg10.dtd">
<svg version="1.0" xmlns="http://www.w3.org/2000/svg"
 width="512.000000pt" height="512.000000pt" viewBox="0 0 512.000000 512.000000"
 preserveAspectRatio="xMidYMid meet">

<g transform="translate(0.000000,512.000000) scale(0.100000,-0.100000)"
fill="#000000" stroke="none">
<path d="M2370 5074 c-19 -2 -75 -9 -125 -15 -442 -54 -892 -243 -1257 -529
-107 -84 -314 -291 -398 -398 -285 -365 -460 -779 -531 -1257 -18 -119 -18
-511 0 -630 71 -478 246 -892 531 -1257 84 -107 291 -314 398 -398 365 -285
779 -460 1257 -531 119 -18 511 -18 630 0 478 71 892 246 1257 531 107 84 314
291 398 398 285 365 460 779 531 1257 18 119 18 511 0 630 -71 478 -246 892
-531 1257 -84 107 -291 314 -398 398 -356 279 -760 453 -1219 525 -93 15 -466
28 -543 19z m265 -868 c28 -13 64 -35 79 -50 16 -14 32 -26 37 -26 10 0 137
-86 165 -111 11 -11 26 -19 33 -19 7 0 32 -16 55 -35 24 -19 47 -35 52 -35 5
0 25 -14 44 -30 19 -16 39 -30 43 -30 5 0 28 -15 52 -32 42 -33 84 -59 134
-87 15 -8 28 -17 31 -21 5 -7 86 -62 154 -105 17 -11 39 -27 49 -36 10 -9 38
-27 62 -39 25 -13 52 -31 61 -41 10 -11 20 -19 24 -19 12 0 155 -97 169 -114
7 -9 21 -16 31 -16 10 0 23 -7 30 -15 7 -8 39 -31 71 -51 33 -19 59 -39 59
-44 0 -5 10 -12 23 -16 37 -11 109 -75 123 -110 11 -27 14 -134 14 -557 0
-349 -4 -534 -11 -555 -11 -33 -108 -122 -132 -122 -9 0 -17 -4 -19 -9 -3 -9
-165 -121 -174 -121 -3 0 -25 -15 -49 -32 -24 -18 -58 -42 -76 -53 -51 -31
-62 -38 -99 -66 -19 -15 -48 -33 -65 -42 -16 -8 -43 -27 -60 -41 -16 -14 -35
-26 -41 -26 -6 0 -17 -7 -24 -15 -6 -7 -36 -28 -66 -45 -30 -16 -54 -34 -54
-39 0 -5 -9 -12 -19 -16 -26 -8 -164 -99 -180 -119 -7 -9 -20 -16 -28 -16 -8
0 -31 -13 -51 -28 -100 -76 -136 -102 -143 -102 -5 0 -47 -27 -94 -60 -47 -33
-90 -60 -95 -60 -5 0 -22 -12 -37 -26 -28 -27 -117 -74 -140 -74 -30 0 -111
35 -148 65 -22 18 -50 35 -61 39 -12 4 -29 15 -39 26 -10 11 -22 20 -27 20 -5
0 -29 16 -52 35 -24 19 -48 35 -54 35 -6 0 -26 13 -44 28 -41 34 -145 102
-157 102 -5 0 -15 7 -22 17 -16 18 -140 101 -179 119 -14 6 -34 21 -44 33 -11
11 -23 21 -28 21 -5 0 -43 24 -85 53 -41 28 -96 65 -122 80 -25 16 -55 37 -67
48 -11 10 -24 19 -30 19 -5 0 -25 14 -44 30 -19 16 -39 30 -44 30 -4 0 -25 13
-46 30 -21 17 -42 30 -47 30 -5 0 -24 13 -43 30 -19 16 -40 29 -47 30 -7 0
-23 10 -37 23 -14 13 -45 34 -70 47 -26 13 -46 26 -46 31 0 4 -14 16 -31 27
-58 36 -59 45 -59 612 0 342 4 528 11 554 6 22 22 48 35 59 13 10 30 24 37 31
7 7 24 19 39 27 15 8 65 40 111 72 46 31 89 57 94 57 5 0 18 9 29 21 10 12 39
33 64 47 24 15 53 35 62 44 10 10 24 18 31 18 6 1 28 14 47 30 19 17 39 30 45
30 5 0 29 15 51 33 23 17 67 48 98 67 31 19 75 50 97 68 23 17 45 32 50 32 6
0 15 5 22 11 10 8 78 54 156 104 66 42 171 117 176 125 3 5 14 10 24 10 10 0
24 7 31 15 13 16 105 81 148 105 15 8 45 28 66 45 49 37 104 63 136 64 14 0
48 -10 75 -23z"/>
<path d="M2345 3769 c-33 -22 -69 -48 -80 -58 -11 -10 -42 -31 -69 -47 -79
-47 -112 -68 -127 -81 -20 -18 -120 -83 -128 -83 -3 0 -21 -14 -39 -30 -19
-16 -44 -32 -55 -36 -12 -4 -24 -9 -27 -13 -10 -13 -79 -61 -87 -61 -4 0 -24
-14 -43 -30 -19 -16 -39 -30 -43 -30 -5 0 -25 -14 -46 -31 -21 -16 -52 -38
-69 -47 -38 -21 -177 -112 -205 -133 -18 -14 -19 -19 -8 -33 7 -9 22 -16 32
-16 11 0 19 -3 19 -8 0 -4 32 -27 70 -51 39 -23 70 -46 70 -51 0 -4 12 -13 28
-19 25 -10 93 -55 152 -102 13 -10 29 -19 36 -19 6 0 24 -11 40 -25 35 -31 39
-31 74 -2 28 22 161 110 209 137 14 8 28 17 31 20 15 15 80 60 87 60 4 0 24
14 43 30 19 16 39 30 44 30 5 0 28 16 52 35 23 19 47 35 52 35 5 0 21 10 35
23 l27 23 0 327 c0 180 -3 327 -7 326 -5 0 -35 -18 -68 -40z"/>
<path d="M2710 3480 l0 -329 23 -16 c20 -15 97 -65 136 -90 9 -5 32 -22 52
-37 20 -16 39 -28 44 -28 4 0 27 -16 51 -35 23 -19 47 -35 52 -35 5 0 19 -9
31 -19 12 -10 46 -34 76 -52 30 -18 55 -37 55 -41 0 -4 6 -8 14 -8 8 0 28 -11
44 -25 17 -14 34 -25 39 -25 6 0 22 11 37 25 15 14 31 25 36 25 9 0 142 88
150 100 3 4 17 13 31 21 15 8 65 40 112 72 47 31 89 57 94 57 4 0 13 8 20 18
12 20 7 26 -43 55 -40 23 -139 91 -152 104 -7 7 -20 13 -27 13 -8 0 -22 8 -32
19 -15 15 -51 41 -152 106 -125 82 -169 112 -185 127 -11 10 -23 18 -27 18 -3
0 -41 24 -84 53 -43 28 -88 59 -100 67 -12 8 -44 28 -71 44 -27 17 -64 42 -82
58 -18 15 -38 28 -45 28 -7 1 -28 14 -47 30 -19 17 -38 30 -42 30 -4 0 -8
-148 -8 -330z"/>
<path d="M2539 2884 c-7 -9 -27 -23 -44 -32 -18 -9 -65 -39 -106 -67 -41 -27
-81 -54 -90 -60 -9 -5 -49 -32 -89 -60 -40 -27 -88 -58 -106 -68 -43 -23 -43
-42 -1 -64 19 -10 67 -40 108 -68 41 -27 81 -54 90 -60 9 -5 49 -32 89 -60 40
-27 86 -57 102 -67 16 -9 37 -23 47 -32 23 -21 34 -20 56 4 10 11 26 20 36 20
10 0 22 6 26 13 4 8 28 27 53 42 25 16 54 37 65 46 11 10 31 24 45 31 14 8 58
36 99 63 41 28 81 55 90 60 9 6 26 17 38 26 l21 16 -31 18 c-18 10 -47 31 -65
47 -18 15 -38 28 -44 28 -6 0 -30 16 -54 35 -23 19 -46 35 -51 35 -4 0 -24 14
-43 30 -19 16 -40 30 -45 30 -6 0 -26 13 -45 30 -19 16 -39 29 -44 30 -5 0
-24 11 -42 25 -38 29 -47 30 -65 9z"/>
<path d="M1180 2565 c0 -215 1 -225 19 -225 11 0 32 10 48 23 49 40 133 97
142 97 5 0 28 16 51 35 23 19 46 35 51 35 6 0 19 9 30 19 21 19 21 19 -37 58
-31 21 -69 44 -83 52 -14 8 -28 17 -31 20 -3 3 -25 19 -50 36 -25 16 -58 40
-73 52 -16 13 -37 23 -48 23 -18 0 -19 -10 -19 -225z"/>
<path d="M3875 2760 c-21 -16 -43 -30 -49 -30 -6 0 -21 -11 -33 -24 -13 -13
-38 -31 -56 -39 -18 -9 -49 -30 -68 -46 -19 -17 -39 -31 -44 -31 -6 0 -16 -5
-23 -12 -9 -9 -8 -16 5 -30 9 -10 22 -18 29 -18 7 0 25 -11 40 -25 15 -14 49
-38 76 -52 26 -14 48 -30 48 -35 0 -4 6 -8 14 -8 8 0 33 -16 56 -35 71 -60 70
-63 70 190 0 251 1 248 -65 195z"/>
<path d="M1769 2370 c-19 -16 -39 -29 -46 -30 -6 0 -18 -6 -25 -13 -7 -7 -41
-32 -75 -55 -34 -23 -65 -46 -68 -52 -3 -5 -14 -10 -24 -10 -10 0 -26 -10 -37
-21 -10 -12 -43 -36 -72 -53 -30 -17 -65 -38 -80 -46 -36 -22 -38 -36 -5 -56
31 -19 95 -61 127 -84 12 -8 37 -24 55 -35 18 -11 51 -33 73 -50 23 -16 53
-36 67 -44 14 -8 28 -17 31 -20 3 -4 33 -24 67 -46 35 -22 63 -43 63 -47 0 -5
8 -8 18 -8 9 0 33 -14 52 -30 19 -16 39 -30 43 -30 5 0 27 -15 50 -34 23 -18
52 -37 65 -40 12 -4 22 -11 22 -16 0 -5 32 -28 71 -52 87 -53 110 -68 140 -91
30 -23 129 -87 135 -87 2 0 4 148 4 329 l0 330 -26 20 c-15 12 -31 21 -36 21
-5 0 -29 16 -52 35 -24 19 -47 35 -52 35 -5 0 -22 11 -38 25 -16 14 -33 25
-38 25 -6 0 -28 16 -51 35 -22 19 -45 35 -50 35 -6 0 -26 12 -46 28 -37 28
-39 29 -116 77 -26 17 -62 42 -80 57 l-32 27 -34 -29z"/>
<path d="M3300 2375 c-13 -14 -33 -28 -44 -31 -12 -4 -23 -9 -26 -13 -10 -13
-79 -61 -87 -61 -4 0 -24 -14 -43 -30 -19 -16 -39 -30 -44 -30 -5 0 -28 -16
-52 -35 -23 -19 -47 -35 -52 -35 -6 0 -23 -10 -39 -22 -15 -13 -37 -29 -48
-35 -11 -7 -50 -32 -87 -55 l-68 -43 0 -332 c0 -183 4 -333 8 -333 4 0 23 13
42 30 19 16 40 29 47 30 6 0 27 14 45 30 18 17 36 30 40 30 7 0 117 71 168
109 14 10 45 31 69 47 24 16 54 36 66 44 32 22 59 40 145 95 139 89 210 139
210 147 0 4 8 8 18 8 9 0 33 14 52 30 19 16 39 30 44 30 5 0 28 16 52 35 23
19 47 35 52 35 5 0 18 8 29 18 17 14 19 21 9 33 -6 9 -21 19 -32 23 -12 3 -29
15 -39 26 -10 11 -22 20 -27 20 -11 0 -81 51 -86 63 -2 4 -9 7 -16 7 -7 0 -30
14 -51 30 -21 17 -42 30 -47 30 -5 0 -28 15 -51 33 -23 17 -49 37 -58 42 -10
6 -30 20 -47 32 l-29 22 -23 -24z"/>
</g>
</svg>
