<?xml version="1.0" standalone="no"?>
<!DOCTYPE svg PUBLIC "-//W3C//DTD SVG 20010904//EN"
 "http://www.w3.org/TR/2001/REC-SVG-20010904/DTD/svg10.dtd">
<svg version="1.0" xmlns="http://www.w3.org/2000/svg"
 width="512.000000pt" height="512.000000pt" viewBox="0 0 512.000000 512.000000"
 preserveAspectRatio="xMidYMid meet">

<g transform="translate(0.000000,512.000000) scale(0.100000,-0.100000)"
fill="#000000" stroke="none">
<path d="M2370 5074 c-19 -2 -75 -9 -125 -15 -442 -54 -892 -243 -1257 -529
-107 -84 -314 -291 -398 -398 -285 -365 -460 -779 -531 -1257 -18 -119 -18
-511 0 -630 71 -478 246 -892 531 -1257 84 -107 291 -314 398 -398 365 -285
779 -460 1257 -531 119 -18 511 -18 630 0 478 71 892 246 1257 531 107 84 314
291 398 398 285 365 460 779 531 1257 18 119 18 511 0 630 -71 478 -246 892
-531 1257 -84 107 -291 314 -398 398 -356 279 -760 453 -1219 525 -93 15 -466
28 -543 19z m1484 -1137 c22 -12 53 -39 70 -60 l31 -39 3 -1277 2 -1277 -23
-45 c-16 -29 -40 -54 -72 -74 l-48 -30 -1226 -3 c-895 -2 -1240 0 -1279 8 -67
15 -134 75 -151 135 -16 58 -15 2499 0 2546 18 52 54 94 101 118 l43 21 1255
0 1255 0 39 -23z"/>
<path d="M1708 3476 c-144 -53 -198 -203 -118 -329 70 -111 261 -133 367 -42
111 95 90 287 -39 353 -58 30 -156 39 -210 18z"/>
<path d="M2920 2886 c-78 -21 -123 -48 -188 -113 -35 -35 -66 -63 -68 -63 -2
0 -4 36 -4 80 l0 80 -210 0 -210 0 0 -640 0 -640 209 0 210 0 3 398 c3 432 3
429 63 500 42 50 99 75 170 76 89 0 140 -31 180 -108 l30 -60 3 -403 3 -403
212 2 212 3 0 430 c0 379 -3 438 -18 495 -54 199 -165 321 -332 365 -70 18
-202 19 -265 1z"/>
<path d="M1580 2230 l0 -640 210 0 210 0 0 640 0 640 -210 0 -210 0 0 -640z"/>
</g>
</svg>
