<?xml version="1.0" standalone="no"?>
<!DOCTYPE svg PUBLIC "-//W3C//DTD SVG 20010904//EN"
 "http://www.w3.org/TR/2001/REC-SVG-20010904/DTD/svg10.dtd">
<svg version="1.0" xmlns="http://www.w3.org/2000/svg"
 width="512.000000pt" height="512.000000pt" viewBox="0 0 512.000000 512.000000"
 preserveAspectRatio="xMidYMid meet">

<g transform="translate(0.000000,512.000000) scale(0.100000,-0.100000)"
fill="#000000" stroke="none">
<path d="M2370 5074 c-19 -2 -75 -9 -125 -15 -442 -54 -892 -243 -1257 -529
-107 -84 -314 -291 -398 -398 -285 -365 -460 -779 -531 -1257 -18 -119 -18
-511 0 -630 71 -478 246 -892 531 -1257 84 -107 291 -314 398 -398 365 -285
779 -460 1257 -531 119 -18 511 -18 630 0 300 44 555 123 805 247 261 130 449
264 650 464 401 396 644 887 731 1475 18 119 18 511 0 630 -71 478 -246 892
-531 1257 -84 107 -291 314 -398 398 -356 279 -760 453 -1219 525 -93 15 -466
28 -543 19z m-1025 -2072 c0 -599 -1 -587 70 -684 147 -201 446 -204 591 -6
73 99 74 105 74 699 l0 529 191 -2 191 -3 48 -130 c53 -145 105 -266 175 -406
58 -115 154 -279 163 -279 4 0 17 33 29 73 28 90 102 219 171 297 144 162 359
250 582 237 190 -11 346 -82 485 -222 101 -101 145 -169 187 -287 146 -413
-119 -891 -557 -1001 -188 -48 -422 -16 -619 84 -43 22 -82 37 -87 32 -4 -4
-17 -57 -29 -118 -12 -60 -43 -211 -70 -335 -27 -124 -54 -251 -60 -282 l-11
-58 -196 0 -195 0 7 32 c12 59 115 529 147 673 17 77 43 199 58 270 l28 130
-87 135 c-48 74 -110 177 -137 229 l-49 94 -6 -154 c-8 -171 -20 -230 -74
-344 -97 -203 -289 -355 -513 -406 -62 -14 -248 -13 -303 1 -299 77 -515 300
-568 585 -8 39 -12 256 -14 608 l-2 547 190 0 190 0 0 -538z"/>
<path d="M3465 2947 c-65 -22 -100 -44 -149 -92 -55 -56 -111 -165 -131 -260
-8 -38 -24 -108 -35 -154 -11 -46 -19 -85 -17 -86 1 -1 20 -15 42 -32 54 -41
168 -97 241 -119 34 -10 93 -18 140 -18 72 0 88 4 157 36 92 44 154 104 197
191 80 163 53 315 -77 438 -74 70 -145 100 -246 105 -52 3 -97 -1 -122 -9z"/>
</g>
</svg>
