<?xml version="1.0" standalone="no"?>
<!DOCTYPE svg PUBLIC "-//W3C//DTD SVG 20010904//EN"
 "http://www.w3.org/TR/2001/REC-SVG-20010904/DTD/svg10.dtd">
<svg version="1.0" xmlns="http://www.w3.org/2000/svg"
 width="512.000000pt" height="512.000000pt" viewBox="0 0 512.000000 512.000000"
 preserveAspectRatio="xMidYMid meet">

<g transform="translate(0.000000,512.000000) scale(0.100000,-0.100000)"
fill="#000000" stroke="none">
<path d="M2370 5074 c-19 -2 -75 -9 -125 -15 -442 -54 -892 -243 -1257 -529
-107 -84 -314 -291 -398 -398 -285 -365 -460 -779 -531 -1257 -18 -119 -18
-511 0 -630 71 -478 246 -892 531 -1257 84 -107 291 -314 398 -398 365 -285
779 -460 1257 -531 119 -18 511 -18 630 0 478 71 892 246 1257 531 107 84 314
291 398 398 285 365 460 779 531 1257 18 119 18 511 0 630 -71 478 -246 892
-531 1257 -84 107 -291 314 -398 398 -356 279 -760 453 -1219 525 -93 15 -466
28 -543 19z m378 -695 c715 -78 1319 -558 1543 -1229 131 -393 131 -787 0
-1180 -131 -390 -409 -743 -759 -959 -296 -184 -632 -281 -972 -281 -587 0
-1150 291 -1492 771 -144 202 -262 481 -310 736 -31 168 -32 476 0 643 47 254
168 542 309 739 81 113 237 278 342 363 375 302 868 449 1339 397z"/>
<path d="M2355 4109 c-33 -5 -83 -14 -111 -19 l-52 -11 105 -147 c124 -173
290 -433 398 -622 42 -74 79 -137 81 -139 6 -7 154 58 263 115 121 64 228 134
323 211 69 56 228 218 228 232 0 10 -93 82 -179 140 -78 53 -261 142 -361 175
-152 50 -263 68 -455 71 -99 2 -207 0 -240 -6z"/>
<path d="M1815 3932 c-128 -68 -229 -145 -355 -272 -172 -172 -285 -343 -365
-555 -29 -78 -66 -217 -60 -224 9 -8 440 19 614 39 96 11 252 33 347 50 178
30 474 97 474 107 0 3 -45 81 -100 172 -148 248 -462 721 -479 721 -3 0 -37
-17 -76 -38z"/>
<path d="M3710 3484 c-90 -107 -266 -251 -430 -354 -68 -43 -333 -179 -373
-193 -5 -1 21 -71 59 -155 l69 -153 100 8 c251 20 640 1 886 -42 46 -8 88 -15
93 -15 14 0 -1 176 -24 292 -27 134 -71 259 -133 383 -46 93 -153 261 -180
284 -9 7 -27 -8 -67 -55z"/>
<path d="M2460 2794 c-372 -101 -831 -167 -1263 -181 l-197 -6 0 -88 c0 -322
126 -665 346 -943 40 -50 49 -57 58 -44 6 9 40 57 75 108 288 410 700 732
1140 890 58 21 105 43 104 48 -8 33 -118 252 -127 251 -6 -1 -67 -16 -136 -35z"/>
<path d="M3317 2399 c-160 -9 -191 -16 -182 -37 74 -179 220 -698 275 -977 12
-60 24 -112 26 -114 8 -9 146 105 232 191 202 204 348 464 411 737 12 51 20
99 17 106 -6 17 -197 61 -343 79 -157 19 -293 24 -436 15z"/>
<path d="M2714 2261 c-389 -154 -735 -406 -965 -703 -85 -110 -156 -227 -143
-236 201 -147 413 -243 644 -293 90 -20 134 -23 315 -23 195 0 218 2 329 28
66 15 153 40 195 56 90 33 88 14 36 255 -57 266 -174 664 -262 892 l-28 72
-121 -48z"/>
</g>
</svg>
