<?xml version="1.0" standalone="no"?>
<!DOCTYPE svg PUBLIC "-//W3C//DTD SVG 20010904//EN"
 "http://www.w3.org/TR/2001/REC-SVG-20010904/DTD/svg10.dtd">
<svg version="1.0" xmlns="http://www.w3.org/2000/svg"
 width="512.000000pt" height="512.000000pt" viewBox="0 0 512.000000 512.000000"
 preserveAspectRatio="xMidYMid meet">

<g transform="translate(0.000000,512.000000) scale(0.100000,-0.100000)"
fill="#000000" stroke="none">
<path d="M2370 5074 c-19 -2 -75 -9 -125 -15 -442 -54 -892 -243 -1257 -529
-107 -84 -314 -291 -398 -398 -285 -365 -460 -779 -531 -1257 -18 -119 -18
-511 0 -630 71 -478 246 -892 531 -1257 84 -107 291 -314 398 -398 365 -285
779 -460 1257 -531 119 -18 511 -18 630 0 478 71 892 246 1257 531 107 84 314
291 398 398 285 365 460 779 531 1257 18 119 18 511 0 630 -71 478 -246 892
-531 1257 -84 107 -291 314 -398 398 -356 279 -760 453 -1219 525 -93 15 -466
28 -543 19z m-954 -1330 c30 -29 27 -69 -6 -93 -11 -7 -20 -18 -20 -24 0 -5
-44 -54 -97 -108 -102 -103 -163 -177 -184 -222 -7 -15 -16 -27 -20 -27 -4 0
-10 -13 -14 -30 -4 -16 -12 -33 -19 -37 -7 -5 -18 -27 -24 -50 -7 -24 -16 -43
-21 -43 -4 0 -13 -25 -20 -55 -7 -30 -16 -57 -21 -60 -5 -3 -12 -27 -15 -53
-4 -26 -14 -74 -22 -107 -24 -97 -20 -385 7 -521 25 -127 43 -188 76 -265 13
-31 24 -64 24 -73 0 -9 3 -16 8 -16 4 0 22 -29 40 -65 19 -36 37 -65 40 -65 4
0 14 -15 21 -32 8 -18 23 -39 33 -46 10 -7 18 -17 18 -23 0 -5 17 -26 38 -48
20 -21 48 -53 61 -70 13 -17 27 -31 32 -31 10 0 59 -45 59 -54 0 -4 9 -19 21
-35 31 -43 23 -88 -21 -114 -35 -20 -37 -20 -83 -2 -33 12 -72 44 -138 110
-51 51 -97 101 -102 111 -6 11 -16 23 -24 27 -7 4 -13 14 -13 22 0 8 -9 19
-19 25 -11 5 -22 23 -26 40 -4 16 -11 30 -16 30 -5 0 -14 11 -19 25 -5 14 -13
25 -18 25 -5 0 -15 18 -22 40 -7 22 -16 40 -20 40 -4 0 -13 19 -20 43 -8 23
-19 51 -26 62 -7 11 -15 35 -19 53 -4 18 -13 45 -21 60 -8 15 -14 34 -14 43 0
8 -9 51 -21 94 -36 140 -42 573 -8 685 6 19 17 58 24 85 37 135 99 275 172
385 24 36 49 74 56 84 46 73 209 244 252 266 17 8 36 21 43 28 23 21 80 15
108 -14z m2425 -6 c39 -21 209 -178 209 -194 0 -3 10 -19 23 -34 12 -15 28
-36 34 -46 7 -10 26 -39 43 -64 16 -25 30 -51 30 -57 0 -7 4 -13 9 -13 20 0
114 -218 147 -340 8 -30 19 -71 24 -90 21 -77 34 -223 34 -380 0 -266 -25
-381 -131 -617 -13 -28 -23 -57 -23 -62 0 -6 -4 -11 -10 -11 -5 0 -10 -4 -10
-9 0 -9 -58 -110 -70 -121 -14 -13 -60 -80 -60 -86 0 -3 -16 -21 -35 -40 -19
-18 -35 -36 -35 -40 0 -12 -104 -114 -117 -114 -7 0 -13 -4 -13 -10 0 -14 -95
-60 -124 -60 -27 0 -76 42 -76 65 0 24 42 77 145 182 55 56 105 108 110 115
51 68 65 88 65 97 0 5 6 14 13 18 13 8 107 191 107 208 0 6 7 22 15 38 8 15
19 52 24 82 6 30 16 65 23 78 10 16 13 89 12 287 0 283 -4 307 -70 505 -26 80
-121 268 -154 305 -8 10 -24 30 -35 45 -11 15 -66 76 -122 135 -57 59 -103
115 -103 124 0 9 -4 16 -10 16 -22 0 -9 53 19 81 35 35 56 36 112 7z m-1516
-149 c5 -5 16 -9 24 -9 21 0 141 -60 141 -71 0 -5 6 -9 13 -9 17 0 106 -94
144 -150 31 -48 45 -90 70 -205 42 -201 58 -261 70 -268 7 -4 13 -14 13 -20 0
-7 13 -17 29 -23 36 -14 71 0 102 39 22 28 22 29 4 90 -10 34 -26 74 -35 88
-44 64 -18 101 38 54 16 -14 33 -25 37 -25 4 0 31 -25 61 -56 122 -125 188
-246 216 -394 15 -84 6 -357 -14 -400 -9 -19 -22 -52 -29 -72 -7 -21 -17 -38
-21 -38 -4 0 -8 -6 -8 -12 0 -21 -148 -198 -165 -198 -4 0 -20 -11 -37 -25
-16 -14 -35 -25 -43 -25 -7 0 -15 -6 -18 -14 -6 -15 -53 -27 -74 -19 -25 10
-13 41 32 84 25 24 45 49 45 56 0 7 9 17 20 23 11 6 20 17 20 25 0 8 6 18 14
22 7 4 23 36 35 71 18 51 22 78 18 145 -4 77 -29 175 -50 188 -5 4 -14 17 -21
30 -12 25 -61 58 -71 48 -3 -4 -1 -26 5 -50 23 -89 23 -95 -3 -122 -21 -23
-33 -27 -79 -27 -44 0 -58 4 -74 23 -47 55 -54 98 -32 182 11 39 10 53 -6 96
-38 108 -122 187 -193 180 -18 -1 -16 -28 2 -34 21 -9 45 -73 45 -124 0 -25
-9 -62 -21 -85 -21 -42 -89 -118 -104 -118 -4 0 -18 -10 -30 -22 -12 -13 -36
-34 -54 -47 -17 -13 -31 -29 -31 -36 0 -7 -7 -15 -15 -19 -8 -3 -15 -12 -15
-20 0 -8 -8 -19 -17 -25 -15 -8 -18 -25 -18 -118 0 -92 4 -117 25 -168 14 -33
33 -66 42 -73 10 -7 18 -19 18 -27 0 -7 9 -17 20 -20 11 -3 20 -10 20 -15 0
-5 25 -21 56 -36 76 -37 58 -52 -35 -29 -39 9 -71 20 -71 24 0 4 -12 12 -27
18 -67 29 -104 56 -176 128 -76 76 -87 90 -87 103 0 7 -4 12 -9 12 -5 0 -15
17 -22 38 -6 20 -16 42 -21 48 -14 19 -38 145 -38 204 0 60 25 190 38 199 4 3
14 22 22 41 8 19 16 37 19 40 6 5 29 46 58 103 8 15 18 27 22 27 4 0 13 16 21
35 8 19 17 35 21 35 4 0 14 12 22 28 34 64 46 85 54 91 19 14 83 144 112 227
30 88 28 160 -9 236 -29 64 -81 127 -119 148 -23 12 -28 36 -9 42 18 6 122
-12 133 -23z m1149 -1978 c40 -38 34 -114 -12 -161 -14 -13 -121 -15 -896 -15
l-881 0 -27 26 c-23 22 -28 35 -28 75 0 54 21 83 70 95 14 4 413 6 887 5 l861
-1 26 -24z"/>
</g>
</svg>
