<?xml version="1.0" standalone="no"?>
<!DOCTYPE svg PUBLIC "-//W3C//DTD SVG 20010904//EN"
 "http://www.w3.org/TR/2001/REC-SVG-20010904/DTD/svg10.dtd">
<svg version="1.0" xmlns="http://www.w3.org/2000/svg"
 width="512.000000pt" height="512.000000pt" viewBox="0 0 512.000000 512.000000"
 preserveAspectRatio="xMidYMid meet">

<g transform="translate(0.000000,512.000000) scale(0.100000,-0.100000)"
fill="#000000" stroke="none">
<path d="M2370 5074 c-19 -2 -75 -9 -125 -15 -442 -54 -892 -243 -1257 -529
-107 -84 -314 -291 -398 -398 -285 -365 -460 -779 -531 -1257 -18 -119 -18
-511 0 -630 71 -478 246 -892 531 -1257 84 -107 291 -314 398 -398 212 -166
507 -329 728 -403 122 -41 139 -40 182 6 36 39 41 81 35 329 l-6 230 -36 -6
c-251 -43 -446 -20 -600 71 -93 55 -156 129 -213 251 -81 174 -160 279 -258
345 -153 102 -147 163 15 155 137 -7 265 -95 375 -257 92 -137 167 -203 278
-244 90 -34 250 -31 363 6 l85 28 17 68 c21 89 55 164 101 224 24 31 32 49 24
51 -7 2 -62 11 -122 21 -533 82 -858 360 -961 824 -32 141 -49 341 -40 466 14
200 84 391 199 541 l53 70 -20 75 c-30 111 -29 322 2 442 12 49 29 104 37 123
14 33 16 34 67 34 127 0 315 -69 517 -190 l118 -70 148 29 c338 68 630 68 971
0 l152 -31 43 30 c197 134 443 232 585 232 51 0 53 -1 67 -34 8 -19 25 -74 37
-123 31 -120 32 -331 2 -442 l-20 -75 54 -70 c157 -205 221 -461 194 -771 -37
-416 -186 -694 -466 -874 -141 -90 -361 -163 -578 -192 l-95 -12 38 -49 c47
-59 84 -136 107 -220 14 -54 17 -126 20 -483 1 -231 2 -431 3 -443 0 -36 61
-92 100 -92 56 0 220 62 390 146 267 133 452 267 660 474 207 208 341 393 474
660 124 250 203 505 247 805 18 119 18 511 0 630 -71 478 -246 892 -531 1257
-84 107 -291 314 -398 398 -356 279 -764 454 -1219 525 -93 15 -469 28 -543
19z"/>
<path d="M932 1478 c3 -25 42 -38 60 -20 13 13 -18 42 -43 42 -15 0 -20 -6
-17 -22z"/>
<path d="M1033 1395 c-7 -20 24 -55 49 -55 21 0 25 39 6 58 -17 17 -47 15 -55
-3z"/>
<path d="M1143 1283 c-18 -6 -16 -49 3 -67 19 -20 53 -21 60 -2 12 30 -34 79
-63 69z"/>
<path d="M1257 1133 c-16 -15 -6 -53 18 -69 31 -20 59 -15 63 13 6 38 -57 81
-81 56z"/>
<path d="M1422 1018 c-28 -28 40 -78 79 -58 24 13 24 32 1 53 -21 20 -63 22
-80 5z"/>
<path d="M1824 1006 c-15 -12 -17 -18 -8 -33 19 -31 86 -29 98 3 15 39 -49 60
-90 30z"/>
<path d="M1638 989 c-46 -26 4 -79 56 -60 31 13 39 36 17 55 -20 18 -48 20
-73 5z"/>
</g>
</svg>
