<?xml version="1.0" standalone="no"?>
<!DOCTYPE svg PUBLIC "-//W3C//DTD SVG 20010904//EN"
 "http://www.w3.org/TR/2001/REC-SVG-20010904/DTD/svg10.dtd">
<svg version="1.0" xmlns="http://www.w3.org/2000/svg"
 width="512.000000pt" height="512.000000pt" viewBox="0 0 512.000000 512.000000"
 preserveAspectRatio="xMidYMid meet">

<g transform="translate(0.000000,512.000000) scale(0.100000,-0.100000)"
fill="#000000" stroke="none">
<path d="M2370 5074 c-19 -2 -75 -9 -125 -15 -442 -54 -892 -243 -1257 -529
-107 -84 -314 -291 -398 -398 -285 -365 -460 -779 -531 -1257 -18 -119 -18
-511 0 -630 71 -478 246 -892 531 -1257 84 -107 291 -314 398 -398 365 -285
779 -460 1257 -531 119 -18 511 -18 630 0 478 71 892 246 1257 531 107 84 314
291 398 398 285 365 460 779 531 1257 18 119 18 511 0 630 -71 478 -246 892
-531 1257 -84 107 -291 314 -398 398 -356 279 -760 453 -1219 525 -93 15 -466
28 -543 19z m1280 -931 c0 -3 47 -278 105 -609 58 -332 105 -607 105 -612 0
-10 -251 -54 -259 -46 -5 4 -220 1227 -217 1231 3 4 213 41 239 42 15 0 27 -2
27 -6z m-590 -571 c118 -174 277 -407 352 -518 l137 -201 -104 -72 c-57 -39
-108 -71 -113 -71 -6 0 -169 232 -363 516 -267 393 -348 519 -338 525 8 4 57
37 109 73 52 36 97 65 100 65 3 0 102 -142 220 -317z m-305 -595 c281 -165
514 -304 519 -308 4 -4 -22 -59 -59 -122 l-68 -114 -71 42 c-39 23 -276 162
-526 310 -250 147 -461 273 -469 281 -12 11 -8 24 29 86 90 153 88 150 113
137 12 -7 252 -147 532 -312z m-216 -463 c316 -85 577 -156 579 -159 6 -6 -59
-255 -67 -255 -7 0 -1205 322 -1208 324 -3 2 19 85 53 204 14 51 16 54 42 47
15 -3 285 -76 601 -161z m-961 -786 l2 -548 825 0 825 0 0 550 0 550 105 0
105 0 0 -655 0 -655 -1040 0 -1040 0 0 655 0 656 108 -3 107 -3 3 -547z m887
331 c314 -28 572 -53 574 -55 8 -7 -22 -264 -30 -264 -5 0 -277 25 -604 55
-328 30 -605 55 -617 55 -20 0 -21 3 -14 98 4 53 9 114 13 136 l6 38 51 -5
c28 -3 308 -29 621 -58z m545 -534 l0 -135 -630 0 -630 0 0 135 0 135 630 0
630 0 0 -135z"/>
</g>
</svg>
