<?xml version="1.0" standalone="no"?>
<!DOCTYPE svg PUBLIC "-//W3C//DTD SVG 20010904//EN"
 "http://www.w3.org/TR/2001/REC-SVG-20010904/DTD/svg10.dtd">
<svg version="1.0" xmlns="http://www.w3.org/2000/svg"
 width="512.000000pt" height="512.000000pt" viewBox="0 0 512.000000 512.000000"
 preserveAspectRatio="xMidYMid meet">

<g transform="translate(0.000000,512.000000) scale(0.100000,-0.100000)"
fill="#000000" stroke="none">
<path d="M2370 5074 c-19 -2 -75 -9 -125 -15 -442 -54 -892 -243 -1257 -529
-107 -84 -314 -291 -398 -398 -285 -365 -460 -779 -531 -1257 -18 -119 -18
-511 0 -630 71 -478 246 -892 531 -1257 84 -107 291 -314 398 -398 365 -285
779 -460 1257 -531 119 -18 511 -18 630 0 478 71 892 246 1257 531 107 84 314
291 398 398 285 365 460 779 531 1257 18 119 18 511 0 630 -71 478 -246 892
-531 1257 -84 107 -291 314 -398 398 -356 279 -760 453 -1219 525 -93 15 -466
28 -543 19z m350 -1044 c111 -20 153 -31 194 -50 25 -11 51 -20 59 -20 8 0 20
-7 27 -15 7 -8 19 -15 26 -15 8 0 14 -5 14 -10 0 -6 9 -14 20 -18 34 -13 162
-134 176 -167 7 -17 20 -37 28 -45 9 -7 16 -18 16 -26 0 -7 6 -17 14 -21 15
-9 66 -153 87 -248 22 -99 17 -376 -9 -515 -22 -116 -61 -261 -73 -270 -3 -3
-14 -30 -24 -60 -9 -30 -21 -59 -26 -64 -5 -6 -9 -20 -9 -31 0 -12 -11 -44
-25 -71 -14 -27 -25 -54 -25 -60 0 -6 -6 -24 -14 -40 -7 -16 -20 -44 -27 -61
-8 -18 -17 -33 -21 -33 -6 0 -24 -36 -68 -134 -28 -63 -36 -149 -20 -214 10
-43 22 -60 75 -109 69 -63 85 -75 130 -97 54 -28 356 -116 395 -116 11 0 20
-4 20 -10 0 -5 17 -12 38 -15 169 -28 329 -81 380 -128 61 -56 122 -123 122
-135 0 -14 -40 -75 -52 -80 -5 -2 -8 -8 -8 -14 0 -10 -144 -158 -155 -158 -7
0 -18 -9 -76 -59 -25 -23 -50 -41 -55 -41 -5 0 -22 -16 -37 -35 -15 -19 -36
-35 -46 -35 -10 0 -25 -7 -32 -16 -7 -9 -22 -20 -34 -25 -28 -13 -89 -50 -95
-58 -5 -7 -113 -60 -190 -94 -65 -29 -145 -57 -163 -57 -10 0 -20 -7 -23 -15
-4 -8 -17 -15 -29 -15 -13 0 -26 -4 -29 -9 -3 -5 -20 -11 -38 -14 -18 -3 -82
-15 -143 -27 -60 -11 -153 -26 -205 -31 -111 -13 -495 -6 -560 10 -25 5 -97
20 -160 32 -63 12 -119 25 -124 30 -6 5 -20 9 -32 9 -12 0 -24 7 -28 15 -3 9
-18 15 -35 15 -16 0 -32 4 -35 9 -3 5 -18 12 -33 16 -34 8 -72 24 -178 76 -44
22 -85 39 -91 39 -7 0 -14 7 -18 15 -3 8 -16 20 -28 25 -13 6 -36 19 -53 30
-16 11 -44 27 -62 35 -18 8 -42 29 -55 45 -12 17 -26 30 -31 30 -9 0 -110 80
-115 93 -2 4 -8 7 -14 7 -15 0 -158 143 -158 158 0 6 -3 12 -7 12 -13 0 -43
60 -43 83 0 34 106 139 170 170 78 38 210 75 323 92 20 3 37 9 37 13 0 5 28
14 63 21 87 17 313 88 365 113 52 26 173 142 190 181 25 59 4 225 -34 268 -8
8 -14 21 -14 27 0 6 -6 17 -13 24 -16 16 -87 160 -87 176 0 7 -4 20 -10 30
-19 35 -48 108 -55 139 -3 18 -12 36 -19 40 -15 9 -37 74 -61 178 -9 39 -23
97 -31 130 -26 107 -37 254 -30 405 6 136 21 239 39 256 4 4 7 15 7 24 0 9 6
30 14 46 8 16 22 47 32 69 10 22 28 48 40 57 12 10 24 28 28 41 7 28 136 154
172 167 13 5 24 14 24 20 0 5 6 10 14 10 7 0 19 7 26 15 7 8 19 15 27 15 8 0
33 9 57 20 38 17 132 41 206 53 47 8 265 6 310 -3z"/>
</g>
</svg>
