<?xml version="1.0" standalone="no"?>
<!DOCTYPE svg PUBLIC "-//W3C//DTD SVG 20010904//EN"
 "http://www.w3.org/TR/2001/REC-SVG-20010904/DTD/svg10.dtd">
<svg version="1.0" xmlns="http://www.w3.org/2000/svg"
 width="200.000000pt" height="241.000000pt" viewBox="0 0 200.000000 241.000000"
 preserveAspectRatio="xMidYMid meet">

<g transform="translate(0.000000,241.000000) scale(0.100000,-0.100000)"
fill="#000000" stroke="none">
<path d="M895 2303 c-46 -13 -82 -46 -427 -391 l-378 -376 0 -273 0 -273 190
0 190 0 0 -245 0 -245 526 0 525 0 -3 32 -3 33 -487 3 -488 2 0 210 0 210 580
0 580 0 0 -415 0 -415 -700 0 -700 0 0 175 0 175 -35 0 -35 0 0 -210 0 -210
770 0 770 0 0 450 0 450 70 0 70 0 0 155 0 155 -465 0 -465 0 0 -35 0 -35 430
0 430 0 0 -85 0 -85 -35 0 -35 0 0 65 0 65 -35 0 -35 0 0 -65 0 -65 -580 0
-580 0 0 115 0 115 -35 0 -35 0 0 -115 0 -115 -155 0 -155 0 0 213 0 213 363
360 c371 370 404 397 477 397 73 0 106 -27 481 -401 303 -301 370 -363 390
-360 18 2 25 10 27 33 3 27 -29 62 -370 402 -355 353 -376 372 -427 387 -67
20 -140 19 -206 -1z"/>
</g>
</svg>
